<?xml version="1.0" standalone="no"?>
<!DOCTYPE svg PUBLIC "-//W3C//DTD SVG 20010904//EN"
 "http://www.w3.org/TR/2001/REC-SVG-20010904/DTD/svg10.dtd">
<svg version="1.0" xmlns="http://www.w3.org/2000/svg"
 width="391.000000pt" height="391.000000pt" viewBox="0 0 391.000000 391.000000"
 preserveAspectRatio="xMidYMid meet">
<metadata>
Created by potrace 1.14, written by Peter Selinger 2001-2017
</metadata>
<g transform="translate(0.000000,391.000000) scale(0.100000,-0.100000)"
fill="#000000" stroke="none">
<path d="M2000 3889 c0 -19 24 -42 33 -32 4 3 7 16 7 27 0 17 -2 18 -10 6 -9
-13 -11 -13 -20 0 -8 13 -10 13 -10 -1z"/>
<path d="M1715 3653 c-17 -2 -44 -15 -60 -27 -28 -23 -29 -26 -19 -65 10 -37
9 -41 -7 -41 -11 0 -16 -5 -13 -14 3 -7 -2 -16 -11 -20 -11 -4 -15 -1 -13 12
5 27 -31 20 -50 -10 -20 -34 -10 -46 24 -28 21 12 27 12 33 1 12 -19 46 -5 60
25 10 23 14 24 28 13 16 -13 16 -12 0 11 -16 23 -24 50 -11 37 8 -8 84 30 106
53 16 17 15 19 -6 39 -12 11 -24 20 -27 19 -2 0 -18 -3 -34 -5z"/>
<path d="M1567 3613 c-13 -12 -7 -23 13 -23 11 0 20 7 20 15 0 15 -21 21 -33
8z"/>
<path d="M1943 3609 c-18 -5 -35 -14 -38 -19 -9 -14 57 1 73 17 15 15 10 15
-35 2z"/>
<path d="M2136 3533 c-14 -8 -28 -26 -32 -41 -3 -15 -7 -37 -10 -49 -2 -12
-11 -28 -19 -37 -8 -8 -15 -19 -15 -25 0 -6 -4 -11 -8 -11 -5 0 -16 -16 -25
-36 -10 -19 -22 -32 -27 -29 -6 3 -13 -1 -16 -9 -3 -9 -10 -13 -15 -10 -5 3
-13 -5 -18 -18 -5 -13 -28 -43 -50 -67 l-40 -45 -11 30 -12 29 -19 -24 -20
-24 -6 21 c-7 29 -21 28 -33 -4 -6 -14 -15 -22 -20 -19 -6 4 -17 1 -25 -5 -18
-15 -35 -5 -35 21 0 25 -21 24 -53 -1 -14 -11 -36 -22 -48 -24 -13 -3 -26 -5
-29 -6 -3 -2 -8 -2 -12 -1 -4 0 -10 -9 -14 -21 -6 -19 -8 -20 -18 -6 -18 24
-39 25 -62 2 -24 -24 -17 -61 16 -82 17 -11 20 -10 20 8 0 11 7 20 15 20 8 0
15 -4 15 -9 0 -13 81 -1 107 16 16 10 22 11 25 2 2 -7 22 -13 43 -13 114 -5
113 -5 108 -25 -4 -15 2 -20 29 -24 18 -3 60 -12 93 -21 33 -9 100 -19 150
-22 49 -3 94 -8 99 -12 6 -3 24 -6 40 -8 100 -6 236 -39 236 -56 0 -4 11 -8
24 -8 14 0 28 -5 32 -11 3 -6 15 -9 25 -6 10 3 22 1 25 -4 3 -5 20 -9 37 -9
18 0 50 -9 71 -20 22 -11 61 -27 88 -36 27 -9 52 -22 55 -30 3 -8 10 -14 15
-14 6 0 27 -13 48 -30 39 -31 90 -122 109 -195 6 -22 26 -89 44 -150 19 -60
31 -111 26 -113 -4 -2 -17 1 -28 7 -22 12 -192 16 -268 6 -41 -6 -58 -4 -78 9
-23 15 -25 15 -25 -1 0 -13 -9 -18 -32 -20 -18 -1 -44 -4 -58 -6 -14 -3 -29
-6 -33 -6 -5 -1 -5 -5 -2 -11 3 -6 -5 -10 -19 -10 -13 0 -36 -4 -50 -10 -18
-7 -37 -5 -67 5 -23 9 -52 13 -63 9 -17 -4 -18 -3 -6 5 13 9 13 11 -2 11 -9 0
-18 -5 -20 -11 -2 -6 -14 -5 -33 5 -35 19 -55 20 -55 5 0 -6 -9 -9 -20 -6 -11
3 -23 1 -26 -4 -3 -5 -16 -9 -30 -9 -14 0 -27 -7 -30 -15 -4 -8 -13 -15 -21
-15 -56 0 -275 -99 -299 -135 -9 -14 -22 -25 -29 -25 -7 0 -18 -7 -25 -15 -7
-8 -18 -15 -25 -15 -18 0 -95 -70 -95 -86 0 -7 -13 -27 -30 -44 -50 -52 -41
-59 72 -54 44 1 89 9 107 18 44 23 190 18 175 -5 -3 -5 2 -9 10 -9 9 0 16 -5
16 -11 0 -6 -6 -9 -12 -6 -7 2 -28 -5 -47 -17 -46 -30 -52 -79 -11 -96 34 -14
158 -15 229 -1 29 6 72 11 95 12 22 0 35 3 29 6 -7 2 -13 9 -13 15 0 6 6 8 14
5 8 -3 20 0 26 8 6 8 30 17 53 20 72 11 107 55 107 135 0 43 29 118 53 138 30
25 51 10 58 -39 4 -26 25 -75 49 -116 41 -68 45 -71 89 -78 25 -4 56 -13 68
-21 25 -16 63 -19 63 -5 0 4 18 11 41 14 50 7 89 41 89 78 0 31 23 59 49 59
23 0 48 27 56 62 4 16 10 26 15 23 14 -9 35 -301 21 -309 -5 -3 -7 -23 -5 -45
2 -31 -4 -50 -27 -83 -16 -24 -29 -53 -29 -64 0 -27 -17 -39 -54 -39 -18 0
-33 7 -40 20 -14 25 -28 35 -38 29 -4 -3 -8 1 -8 9 0 22 -34 47 -64 47 -16 0
-25 -4 -21 -10 11 -17 -7 -11 -42 16 -41 31 -43 16 -3 -29 27 -31 43 -86 21
-73 -5 3 -14 -1 -21 -9 -14 -17 -56 -20 -65 -5 -12 19 -41 10 -76 -22 -20 -18
-38 -40 -41 -48 -4 -12 -9 -13 -25 -3 -11 6 -56 14 -99 18 -61 5 -87 3 -116
-9 -36 -16 -39 -15 -59 5 -18 18 -21 29 -16 75 l6 54 -27 -7 c-15 -3 -39 -6
-54 -6 -21 0 -25 -3 -17 -13 7 -9 0 -14 -31 -19 -24 -4 -44 -14 -50 -26 -6
-11 -17 -16 -25 -12 -10 3 -34 -15 -68 -51 -30 -31 -61 -56 -71 -56 -9 0 -20
-10 -25 -23 -5 -13 -20 -36 -33 -53 -33 -39 -54 -85 -50 -107 3 -14 10 -17 32
-12 23 5 28 2 34 -18 6 -24 6 -24 41 -8 19 9 34 22 35 29 0 8 8 10 26 6 18 -5
29 -1 39 12 18 25 31 10 18 -19 -6 -12 -15 -34 -22 -49 -6 -16 -15 -28 -21
-28 -5 0 -10 -18 -10 -39 0 -22 -4 -41 -9 -43 -17 -6 -21 -59 -5 -65 8 -3 14
-16 14 -29 0 -15 6 -24 15 -24 18 0 18 -4 3 -47 -11 -29 -10 -35 8 -48 10 -8
14 -15 6 -15 -6 0 -11 -5 -10 -12 2 -6 -8 -14 -22 -18 l-25 -6 25 -8 c25 -8
25 -8 -7 -17 -19 -6 -33 -16 -33 -25 0 -12 -6 -15 -25 -10 -17 4 -31 0 -45
-14 -17 -17 -21 -18 -26 -5 -4 8 -12 15 -20 15 -8 0 -14 5 -14 10 0 6 7 10 15
10 8 0 15 5 15 10 0 18 -26 11 -54 -15 -32 -30 -56 -32 -56 -7 0 25 -40 43
-64 30 -20 -11 -101 5 -124 25 -10 8 -16 7 -22 -4 -8 -12 -11 -12 -22 2 -20
25 -85 70 -95 67 -5 -2 -21 11 -35 27 -34 39 -41 30 -18 -22 28 -62 164 -200
222 -225 26 -11 45 -24 42 -29 -3 -5 8 -9 25 -9 29 0 61 -33 47 -48 -7 -7
-186 -31 -234 -32 -18 0 -40 7 -48 15 -9 8 -26 15 -40 15 -14 0 -26 6 -29 13
-2 6 -31 99 -65 205 -34 106 -66 190 -71 186 -12 -7 -68 -127 -72 -153 -2 -11
-6 -24 -10 -27 -4 -4 -7 -18 -7 -31 0 -13 -4 -31 -10 -41 -35 -64 -73 -154
-80 -192 -7 -38 -6 -46 11 -58 10 -7 19 -19 18 -25 0 -9 -2 -9 -6 1 -2 6 -9
12 -14 12 -13 0 -11 -67 2 -75 5 -4 8 -12 6 -18 -2 -7 0 -23 5 -37 5 -14 14
-52 19 -85 9 -55 9 -60 -12 -76 -19 -14 -21 -20 -11 -32 10 -12 8 -17 -10 -29
-39 -25 -58 -29 -58 -13 0 9 10 15 23 15 18 1 19 2 6 10 -12 7 -31 3 -65 -14
-27 -13 -56 -26 -64 -29 -8 -3 22 -6 67 -6 56 -1 83 3 86 12 4 9 7 9 18 0 9
-9 56 -13 161 -13 l148 0 0 30 c0 29 1 30 51 30 51 0 51 0 47 -30 l-5 -30
1239 0 1238 0 0 953 0 954 -21 19 c-12 10 -22 18 -23 16 0 -2 -14 0 -31 4 -49
11 -66 38 -66 104 -1 52 -11 70 -40 70 -19 0 -29 5 -29 15 0 8 -11 22 -25 31
-14 9 -22 20 -19 26 3 5 0 16 -8 25 -10 13 -10 17 0 20 26 9 10 23 -27 23 -42
0 -61 14 -43 32 8 8 16 7 27 -2 12 -10 15 -10 15 4 0 10 -4 15 -9 12 -16 -10
-20 23 -5 39 17 17 34 12 34 -11 0 -8 7 -17 15 -20 8 -4 15 -14 15 -23 0 -10
3 -12 8 -5 15 22 52 36 67 24 9 -7 15 -8 20 0 9 15 35 12 35 -4 0 -7 6 -19 14
-25 10 -9 17 -7 27 6 9 11 10 14 2 9 -8 -4 -13 -1 -13 8 0 34 47 12 66 -31 10
-23 13 21 13 263 l1 291 -65 1 c-36 1 -70 4 -75 7 -6 4 -10 -1 -10 -9 0 -13
-15 -14 -100 -11 -55 3 -103 6 -107 7 -17 5 -127 -13 -139 -23 -7 -5 -69 -11
-140 -13 -109 -2 -128 -5 -133 -20 -6 -15 -8 -15 -26 -2 -14 11 -16 15 -6 16
9 0 1 13 -20 33 -35 34 -66 70 -84 98 -93 144 -103 155 -143 150 -9 -1 -11 6
-7 22 12 46 -103 182 -124 149 -4 -6 -42 -5 -99 3 -63 9 -114 10 -160 4 -37
-4 -71 -9 -77 -9 -5 -1 -1 -5 10 -10 18 -7 18 -9 -10 -20 -41 -16 -174 -50
-197 -50 -14 0 -18 8 -18 35 0 29 6 39 30 53 17 9 28 22 26 28 -2 6 4 10 15
10 10 -1 19 4 19 9 1 6 11 14 23 19 29 11 247 34 271 28 18 -5 18 -6 2 -18
-15 -10 -13 -12 16 -11 24 0 42 -8 67 -32 34 -31 61 -37 68 -14 2 6 -11 17
-30 24 -18 6 -38 20 -43 30 -5 9 -25 41 -44 69 -19 29 -39 66 -45 83 -16 51
-60 66 -206 72 -68 3 -138 7 -156 8 -18 2 -43 -3 -57 -10z m337 -40 c-7 -2
-21 -2 -30 0 -10 3 -4 5 12 5 17 0 24 -2 18 -5z m-169 -158 c-10 -8 -43 -22
-72 -31 -29 -8 -50 -20 -46 -25 13 -22 -95 -104 -114 -85 -9 10 19 57 43 70
11 6 33 20 49 31 30 19 119 53 145 54 10 1 9 -4 -5 -14z m96 -210 c-7 -8 -17
-12 -23 -8 -6 4 -3 9 9 14 27 11 28 11 14 -6z m939 -767 c7 -19 14 -22 54 -19
38 2 47 -1 47 -14 0 -8 -10 -20 -22 -25 -18 -7 -19 -9 -5 -9 9 -1 17 -6 17
-12 0 -20 -55 -5 -65 19 -5 12 -18 25 -27 28 -10 3 -18 9 -18 14 0 5 -3 15 -6
24 -3 9 -1 16 5 16 7 0 15 -10 20 -22z m184 -61 c3 -8 -3 -14 -15 -14 -16 -2
-17 1 -8 13 15 17 17 17 23 1z m-133 -47 c0 -5 -4 -10 -9 -10 -6 0 -13 5 -16
10 -3 6 1 10 9 10 9 0 16 -4 16 -10z m80 -150 c0 -5 -4 -10 -10 -10 -5 0 -10
-4 -10 -10 0 -5 7 -10 15 -10 8 0 15 -7 15 -15 0 -8 7 -15 15 -15 8 0 15 -4
15 -10 0 -5 -20 -10 -43 -10 -32 0 -49 6 -63 21 l-19 22 29 -7 c26 -7 28 -5
22 18 -4 15 -1 26 7 29 20 9 27 8 27 -3z m43 -25 c4 -8 2 -17 -2 -20 -5 -2
-11 4 -14 15 -6 23 8 27 16 5z m-393 -5 c0 -5 -4 -10 -10 -10 -5 0 -10 5 -10
10 0 6 5 10 10 10 6 0 10 -4 10 -10z m157 -7 c-4 -3 -2 -12 4 -20 9 -11 2 -13
-37 -12 -27 0 -42 3 -34 6 8 3 19 12 23 19 4 8 18 14 29 14 12 0 18 -3 15 -7z
m460 -4 c6 -6 9 -18 6 -25 -3 -8 0 -14 6 -14 6 0 8 -7 5 -15 -6 -16 -44 -21
-44 -6 0 5 -6 8 -12 7 -7 0 -14 4 -15 9 -2 6 3 10 10 10 6 0 13 10 15 23 4 24
12 28 29 11z m-107 -39 c0 -5 -4 -10 -9 -10 -6 0 -13 5 -16 10 -3 6 1 10 9 10
9 0 16 -4 16 -10z m-1950 -145 c-13 -14 -32 -25 -43 -25 -20 0 -19 1 3 25 13
14 32 25 43 25 20 0 19 -1 -3 -25z m1147 -311 c-3 -3 -12 -4 -19 -1 -8 3 -5 6
6 6 11 1 17 -2 13 -5z m153 -118 c0 -3 -4 -8 -10 -11 -5 -3 -10 -1 -10 4 0 6
5 11 10 11 6 0 10 -2 10 -4z m-200 -26 c0 -5 7 -10 15 -10 8 0 15 -4 15 -10 0
-15 117 -90 142 -90 22 -1 22 -1 4 -15 -20 -15 -12 -20 22 -16 7 1 12 -11 12
-34 0 -19 -3 -35 -6 -35 -15 0 -51 26 -73 51 -13 16 -28 29 -33 29 -24 0 -89
54 -104 87 -10 21 -19 41 -21 46 -2 4 3 7 11 7 9 0 16 -4 16 -10z m-354 -73
c7 -7 15 -28 18 -48 7 -40 -9 -63 -41 -57 -14 2 -19 -4 -21 -30 -2 -18 -8 -30
-13 -27 -5 4 -9 -3 -9 -14 0 -22 -14 -28 -25 -11 -3 6 -1 10 4 10 14 0 14 57
0 65 -6 4 -9 -2 -7 -17 2 -12 -1 -23 -7 -23 -5 0 -9 6 -9 12 1 7 -3 10 -8 7
-5 -3 -18 2 -29 12 -22 20 -26 56 -5 48 16 -6 56 29 56 48 0 6 8 20 17 30 18
20 57 18 79 -5z m-276 -191 c0 -19 -4 -38 -10 -41 -6 -4 -10 10 -10 34 0 23 5
41 10 41 6 0 10 -15 10 -34z m51 -23 c-9 -16 -10 -16 -11 4 0 12 3 30 7 40 7
16 8 16 11 -4 2 -12 -1 -30 -7 -40z m793 30 c11 -27 -8 -34 -21 -7 -9 19 -8
24 2 24 7 0 16 -8 19 -17z m-244 -152 c0 -5 16 -12 35 -15 48 -9 64 -43 42
-88 -9 -18 -21 -61 -28 -95 -13 -68 -19 -77 -63 -87 -23 -6 -27 -9 -15 -17 10
-6 5 -9 -18 -9 -18 0 -33 -5 -33 -11 0 -7 -17 -9 -49 -6 -66 7 -116 -4 -116
-26 0 -29 -20 -40 -39 -21 -10 9 -35 18 -57 19 -36 2 -39 0 -39 -24 0 -35 -15
-49 -46 -43 -23 4 -29 16 -25 58 0 11 -10 31 -24 44 -14 13 -25 29 -25 36 0 7
-6 17 -12 21 -11 7 -68 105 -68 117 0 2 19 11 41 20 39 16 95 14 109 -3 18
-22 65 -32 174 -38 147 -7 176 -2 176 31 0 17 9 27 29 36 30 12 33 40 5 40 -8
0 -14 10 -14 25 0 22 9 30 33 26 4 0 7 4 7 9 0 6 5 10 10 10 6 0 10 -4 10 -9z
m-580 -301 c0 -5 -4 -10 -10 -10 -5 0 -10 5 -10 10 0 6 5 10 10 10 6 0 10 -4
10 -10z m-189 -38 c16 3 14 -39 -3 -59 -15 -18 -29 -16 -21 3 4 10 -1 20 -11
26 -13 7 -14 13 -5 30 8 14 13 17 18 9 5 -7 14 -11 22 -9z m119 4 c0 -3 -4 -8
-10 -11 -5 -3 -10 -1 -10 4 0 6 5 11 10 11 6 0 10 -2 10 -4z m93 -129 c-2 -4
-6 -6 -9 -4 -3 1 -12 -9 -19 -23 -12 -22 -14 -23 -20 -7 -9 21 10 46 33 43 9
-2 16 -6 15 -9z m233 -45 c-12 -12 -18 8 -10 35 l8 28 4 -28 c2 -16 1 -31 -2
-35z m-1116 -32 c0 -5 -4 -10 -10 -10 -5 0 -10 5 -10 10 0 6 5 10 10 10 6 0
10 -4 10 -10z m905 -10 c-3 -5 -11 -10 -16 -10 -6 0 -7 5 -4 10 3 6 11 10 16
10 6 0 7 -4 4 -10z m-987 -72 c-2 -13 -7 -23 -13 -23 -5 0 -11 10 -13 23 -2
15 2 22 13 22 11 0 15 -7 13 -22z m-168 -78 c0 -5 -5 -10 -11 -10 -5 0 -7 5
-4 10 3 6 8 10 11 10 2 0 4 -4 4 -10z m82 -25 c0 -5 -5 -11 -11 -13 -6 -2 -11
4 -11 13 0 9 5 15 11 13 6 -2 11 -8 11 -13z m556 -3 c9 -7 9 -19 -4 -62 -11
-36 -18 -49 -24 -40 -5 7 -4 24 1 37 6 15 5 31 0 41 -9 15 -11 14 -20 -8 -6
-16 -10 -19 -10 -8 -2 42 24 60 57 40z m-295 -34 c-7 -41 -8 -42 -28 -35 -15
6 -21 48 -8 60 3 4 14 7 24 7 15 0 17 -6 12 -32z m-179 6 c3 -9 6 -28 6 -42
l-1 -27 -15 28 c-19 35 -38 30 -42 -10 -3 -28 -27 -51 -40 -38 -3 3 0 5 6 5 7
0 12 14 12 32 0 52 58 94 74 52z m227 -81 c-14 -67 -19 -78 -37 -79 -12 -1
-25 -4 -30 -6 -18 -11 -53 10 -49 29 15 76 13 73 53 70 33 -2 39 2 52 30 25
53 29 38 11 -44z m561 25 c-8 -8 -9 -4 -5 13 4 13 8 18 11 10 2 -7 -1 -18 -6
-23z m-125 -10 c-3 -8 -6 -5 -6 6 -1 11 2 17 5 13 3 -3 4 -12 1 -19z m-777
-152 c0 -11 -19 -15 -25 -6 -3 5 1 10 9 10 9 0 16 -2 16 -4z"/>
<path d="M2332 630 c0 -14 2 -19 5 -12 2 6 2 18 0 25 -3 6 -5 1 -5 -13z"/>
<path d="M1370 130 c0 -5 9 -10 20 -10 11 0 20 5 20 10 0 6 -9 10 -20 10 -11
0 -20 -4 -20 -10z"/>
<path d="M1073 3313 c-3 -10 -8 -22 -11 -28 -3 -5 7 1 21 14 31 28 32 31 12
31 -9 0 -18 -8 -22 -17z"/>
<path d="M1280 3279 c-14 -15 -36 -29 -50 -32 -14 -4 -54 -32 -89 -62 -43 -38
-70 -55 -83 -52 -11 3 -22 -2 -29 -14 -7 -13 -16 -18 -29 -14 -10 3 -21 1 -24
-4 -4 -5 -31 -22 -62 -38 -32 -16 -49 -29 -40 -31 24 -5 19 -21 -9 -34 -13 -6
-22 -15 -19 -19 3 -5 -8 -9 -24 -9 -30 0 -50 -24 -32 -35 12 -7 13 -55 2 -55
-4 0 -14 6 -21 13 -11 10 -12 8 -7 -9 4 -13 1 -26 -9 -34 -28 -23 -15 -30 19
-9 42 25 50 14 27 -37 -40 -88 -51 -150 -30 -171 8 -8 7 -17 -5 -35 -16 -25
-12 -98 5 -98 5 0 9 -10 10 -22 l0 -23 9 23 c10 24 18 29 17 10 -1 -36 5 -48
23 -48 17 0 20 7 20 45 0 45 -17 95 -32 95 -4 0 -8 9 -8 19 0 11 -5 21 -12 23
-6 2 -8 10 -4 16 4 7 9 42 11 78 3 48 10 76 27 100 22 33 48 45 48 23 0 -5 5
-7 11 -3 6 3 10 -1 9 -12 -4 -37 0 -38 20 -6 11 18 18 36 16 40 -8 13 20 40
44 44 17 2 24 9 23 22 -3 34 15 66 37 66 11 0 20 5 20 10 0 6 5 10 10 10 19 0
10 -24 -22 -57 l-32 -33 31 -6 c30 -6 30 -6 16 -36 -14 -26 -16 -27 -27 -12
-7 9 -18 14 -24 10 -19 -12 -14 -24 15 -38 29 -14 52 -78 28 -78 -11 0 -29
-69 -20 -78 2 -2 19 8 38 22 27 21 37 24 44 14 22 -36 32 -60 27 -72 -3 -8 -1
-17 5 -21 7 -4 8 0 4 11 -5 14 -3 16 11 11 13 -5 26 1 41 17 13 14 19 26 15
28 -5 2 -12 18 -15 37 -5 32 -4 33 20 27 21 -5 25 -3 25 14 0 11 -4 20 -10 20
-19 0 -10 21 14 29 28 11 39 46 19 62 -11 10 -11 14 -1 20 10 7 9 9 -4 9 -9 0
-24 7 -32 16 -9 8 -20 13 -25 9 -5 -3 -21 6 -35 20 -14 14 -22 25 -18 25 17 0
81 72 75 85 -3 9 4 18 20 24 28 11 39 45 23 72 -7 12 -3 25 13 48 15 20 21 42
19 63 l-3 33 -25 -26z m-478 -711 c7 -18 -2 -39 -13 -32 -12 7 -12 44 0 44 5
0 11 -6 13 -12z"/>
<path d="M1093 3216 c-15 -13 -25 -28 -21 -32 10 -10 58 24 58 41 0 20 -4 19
-37 -9z"/>
<path d="M1350 3080 c0 -5 5 -10 10 -10 6 0 10 5 10 10 0 6 -4 10 -10 10 -5 0
-10 -4 -10 -10z"/>
<path d="M329 2917 c16 -16 14 -30 -4 -23 -9 3 -18 -1 -21 -9 -7 -17 -34 -21
-34 -5 0 6 -7 10 -16 10 -10 0 -14 -6 -11 -15 4 -8 2 -17 -2 -20 -12 -7 -150
-28 -183 -28 -16 0 -28 -4 -28 -8 0 -5 -7 -9 -15 -9 -13 0 -15 -26 -15 -170 0
-118 4 -177 13 -191 9 -17 9 -23 0 -26 -9 -3 -12 -77 -13 -283 l-1 -278 43 -7
c60 -9 105 -31 111 -55 4 -14 17 -21 47 -26 23 -4 36 -10 30 -14 -8 -5 -6 -10
7 -15 36 -15 83 -23 83 -14 0 5 7 9 16 9 9 0 14 -7 12 -17 -2 -11 -12 -18 -26
-17 -33 1 -27 -21 12 -46 19 -11 38 -30 41 -40 8 -26 21 -25 28 0 6 23 37 28
37 6 0 -8 -7 -21 -15 -30 -23 -22 -19 -39 8 -30 12 4 29 7 37 7 8 0 28 11 43
23 17 15 23 24 14 24 -8 0 -20 7 -27 15 -7 8 -23 15 -36 15 -28 0 -32 16 -6
24 10 4 37 24 60 46 55 53 89 55 40 3 -22 -23 -22 -24 -2 -42 10 -10 32 -22
47 -25 l28 -7 -6 48 c-3 26 -8 58 -11 70 -3 15 3 29 16 40 14 12 20 30 20 58
0 22 4 47 9 54 6 10 5 27 -5 49 -7 18 -16 77 -19 130 -5 75 -10 100 -23 110
-9 7 -17 22 -17 35 0 14 -6 22 -16 21 -16 -1 -21 36 -6 47 4 3 3 18 -3 33 -13
35 -13 87 1 123 6 15 10 56 10 90 0 41 7 77 20 108 11 25 21 73 23 106 2 53 0
62 -16 67 -10 2 -18 11 -18 18 0 8 -7 14 -16 14 -13 0 -14 -3 -5 -13 17 -21
-4 -33 -49 -29 -26 3 -40 9 -40 18 0 8 -6 14 -14 14 -7 0 -19 7 -26 15 -11 13
-14 13 -27 0 -18 -19 -53 -3 -53 24 0 11 -9 21 -21 24 -17 4 -19 3 -10 -6z
m-5 -365 c3 -5 -1 -9 -9 -9 -8 0 -15 4 -15 9 0 4 4 8 9 8 6 0 12 -4 15 -8z
m61 -1 c7 -12 -12 -24 -25 -16 -11 7 -4 25 10 25 5 0 11 -4 15 -9z m15 -41 c0
-5 -4 -10 -10 -10 -5 0 -10 5 -10 10 0 6 5 10 10 10 6 0 10 -4 10 -10z m-50
-19 c0 -25 -20 -38 -30 -20 -5 7 -7 16 -4 20 2 4 -2 10 -8 12 -7 3 -1 6 15 6
20 1 27 -4 27 -18z m50 -17 c0 -17 -22 -14 -28 4 -2 7 3 12 12 12 9 0 16 -7
16 -16z m60 6 c0 -5 -4 -10 -10 -10 -5 0 -10 5 -10 10 0 6 5 10 10 10 6 0 10
-4 10 -10z m30 -325 c0 -8 -2 -15 -4 -15 -2 0 -6 7 -10 15 -3 8 -1 15 4 15 6
0 10 -7 10 -15z m-45 -123 c5 -12 13 -22 17 -22 4 0 5 -13 2 -29 -4 -16 -1
-32 5 -35 19 -12 12 -22 -28 -41 -40 -18 -86 -23 -99 -11 -3 4 6 17 21 29 24
20 26 26 18 59 -7 31 -6 37 10 41 11 3 19 13 19 22 0 22 23 14 35 -13z m135
-68 c0 -32 -16 -38 -34 -13 -19 28 -4 68 20 48 8 -6 14 -22 14 -35z m-330 -84
c0 -5 -2 -10 -4 -10 -3 0 -8 5 -11 10 -3 6 -1 10 4 10 6 0 11 -4 11 -10z m189
-155 c-2 -17 -13 -32 -35 -43 -17 -9 -24 -8 -34 3 -19 23 4 53 40 51 17 -1 30
-6 29 -11z"/>
<path d="M951 2717 c-9 -27 -10 -42 -3 -49 7 -7 13 0 17 25 10 53 0 68 -14 24z"/>
<path d="M988 2154 c-5 -4 -8 -21 -8 -38 1 -26 2 -28 11 -13 11 19 8 63 -3 51z"/>
<path d="M788 2098 c-6 -13 -15 -46 -18 -75 -5 -48 -4 -52 17 -56 16 -3 27 2
33 14 18 32 9 139 -11 139 -4 0 -14 -10 -21 -22z"/>
<path d="M882 2075 c0 -16 2 -22 5 -12 2 9 2 23 0 30 -3 6 -5 -1 -5 -18z"/>
<path d="M3780 2080 c0 -5 5 -10 10 -10 6 0 10 5 10 10 0 6 -4 10 -10 10 -5 0
-10 -4 -10 -10z"/>
<path d="M3786 2031 c-4 -7 -5 -15 -2 -18 9 -9 19 4 14 18 -4 11 -6 11 -12 0z"/>
<path d="M856 1964 c-9 -24 -8 -28 15 -43 19 -11 21 -11 16 3 -4 9 -2 16 4 16
6 0 6 7 -1 20 -13 24 -26 26 -34 4z"/>
<path d="M1057 1900 c3 -11 7 -20 9 -20 2 0 4 9 4 20 0 11 -4 20 -9 20 -5 0
-7 -9 -4 -20z"/>
<path d="M800 1880 c0 -5 7 -10 15 -10 8 0 15 5 15 10 0 6 -7 10 -15 10 -8 0
-15 -4 -15 -10z"/>
<path d="M740 1780 c-22 -22 -25 -55 -9 -115 25 -98 49 -120 49 -47 1 56 17
114 34 124 23 13 20 21 -13 41 -36 21 -37 21 -61 -3z"/>
<path d="M0 896 l0 -896 140 1 c96 0 138 4 134 11 -5 7 4 8 27 4 19 -4 77 -9
130 -12 84 -5 97 -3 103 12 3 9 1 23 -6 31 -12 14 -4 24 27 37 6 2 5 11 -3 22
-7 11 -22 38 -33 62 -25 52 -41 60 -77 36 -15 -10 -31 -19 -37 -21 -5 -1 -20
-5 -33 -9 -18 -5 -21 -3 -16 9 3 9 14 19 25 22 10 4 19 10 19 14 0 5 13 14 29
20 15 7 33 23 39 37 15 32 40 31 53 -3 6 -17 13 -23 19 -17 11 11 -9 64 -22
64 -13 0 -9 24 10 60 9 19 23 55 31 80 7 25 19 61 26 80 25 67 40 153 28 157
-8 3 -6 13 5 33 16 28 16 30 -3 44 -19 14 -20 13 -23 -40 -2 -37 -7 -54 -16
-54 -23 0 -34 23 -31 67 1 24 -4 55 -12 70 -11 21 -11 28 -1 35 25 15 48 8 54
-18 5 -18 12 -24 28 -22 19 3 21 10 24 85 l3 82 32 7 c48 12 146 7 199 -9 26
-8 77 -36 112 -61 36 -25 72 -46 80 -46 23 0 56 59 56 100 0 35 -8 50 -63 112
-15 17 -27 35 -27 40 0 4 26 5 58 2 48 -6 62 -12 90 -42 31 -34 33 -34 46 -16
8 10 11 23 8 29 -4 5 -8 2 -10 -8 -2 -9 -8 -15 -13 -12 -14 9 -11 51 6 65 8 7
15 18 15 24 0 6 -4 5 -9 -3 -10 -15 -31 -7 -31 12 -1 7 -16 30 -35 51 -33 38
-35 38 -35 15 0 -21 -9 -29 -55 -48 -30 -13 -55 -29 -55 -37 0 -23 -26 -16
-86 22 -49 31 -55 33 -49 15 4 -15 2 -21 -9 -21 -21 0 -30 18 -17 34 25 30 0
51 -77 65 -50 10 -62 0 -27 -23 14 -9 25 -22 25 -28 0 -6 -9 -3 -19 6 -18 17
-23 17 -75 2 -35 -10 -60 -24 -67 -37 -7 -13 -17 -19 -29 -16 -10 3 -28 -2
-39 -10 -12 -8 -30 -12 -42 -8 -25 8 -69 -2 -69 -16 0 -6 8 -8 18 -5 9 3 23 2
31 -3 27 -17 -24 -22 -75 -6 -60 18 -62 18 -42 3 9 -7 18 -22 20 -33 4 -29
-39 -33 -59 -6 -15 23 -38 27 -48 10 -4 -6 2 -13 14 -16 12 -3 21 -6 21 -7 0
-1 -9 -19 -20 -41 -11 -22 -20 -45 -20 -52 0 -16 -34 -17 -60 -1 -15 10 -24 9
-46 -2 -20 -11 -28 -12 -31 -3 -2 7 -11 9 -19 6 -24 -9 -17 34 9 54 13 10 31
30 41 46 10 15 25 27 32 27 8 0 14 9 14 19 0 13 13 25 40 37 36 16 57 48 28
42 -16 -3 -51 8 -103 32 -22 11 -61 20 -87 21 -58 3 -80 14 -58 29 17 12 145
6 202 -10 20 -6 49 -25 63 -42 23 -27 30 -30 43 -20 41 30 173 85 240 100 l74
17 -5 55 c-2 30 -1 65 4 77 10 27 -3 37 -35 29 -19 -5 -23 -12 -22 -38 1 -18
-1 -40 -5 -48 -4 -8 -12 -27 -20 -42 -17 -37 -36 -35 -47 5 -5 18 -23 48 -41
67 -17 19 -34 43 -37 53 -3 11 -12 16 -20 13 -8 -3 -19 5 -28 22 -16 32 -110
122 -126 122 -6 0 -22 12 -35 26 -14 15 -25 22 -25 15 0 -8 -11 -6 -32 5 -18
10 -27 19 -20 21 17 6 15 23 -3 23 -9 0 -30 8 -48 17 -18 9 -39 17 -47 18 -8
1 -25 5 -37 9 l-23 7 0 -895z m86 843 c3 -6 1 -16 -4 -21 -13 -13 -45 8 -36
23 7 12 31 11 40 -2z m-40 -206 c-10 -10 -19 5 -10 18 6 11 8 11 12 0 2 -7 1
-15 -2 -18z m184 -21 c0 -13 -12 -22 -22 -16 -10 6 -1 24 13 24 5 0 9 -4 9 -8z
m205 -94 c-3 -9 -17 -20 -31 -26 -13 -7 -24 -16 -24 -22 0 -5 -5 -10 -12 -10
-7 0 5 18 27 40 39 40 50 45 40 18z m-85 8 c0 -2 -8 -10 -17 -17 -16 -13 -17
-12 -4 4 13 16 21 21 21 13z m284 -52 c8 -20 -1 -34 -20 -34 -15 0 -17 9 -8
34 8 20 20 20 28 0z m-163 -46 c-8 -10 -23 -18 -33 -18 -10 0 -18 -4 -18 -9 0
-5 -13 -16 -30 -25 -34 -16 -40 -9 -11 16 10 8 20 20 22 24 2 5 20 22 39 38
31 25 35 26 40 10 4 -10 0 -26 -9 -36z m429 -225 c0 -13 -5 -23 -10 -23 -17 0
-29 43 -17 58 13 16 27 -2 27 -35z m-265 -3 c-3 -5 -11 -10 -16 -10 -6 0 -7 5
-4 10 3 6 11 10 16 10 6 0 7 -4 4 -10z m-131 -118 c-3 -20 -10 -41 -15 -46
-14 -15 -11 -42 6 -56 25 -21 18 -42 -12 -38 -23 2 -29 9 -31 32 -4 29 13 105
30 139 15 29 29 9 22 -31z m406 28 c0 -5 -4 -10 -10 -10 -5 0 -10 5 -10 10 0
6 5 10 10 10 6 0 10 -4 10 -10z m-803 -60 c5 -20 6 -20 25 -4 17 16 20 16 35
1 15 -15 15 -17 0 -23 -9 -3 -17 -12 -17 -20 0 -21 -50 -66 -67 -60 -8 3 -17
6 -19 6 -3 0 -3 4 1 10 3 5 12 7 20 4 7 -3 18 3 24 14 9 17 6 24 -20 46 -30
26 -31 46 -2 46 8 0 17 -9 20 -20z m503 -30 c21 -40 -9 -53 -47 -21 -28 23
-28 28 -5 34 33 9 41 7 52 -13z m-551 -139 c-23 -31 -39 -40 -39 -21 0 6 7 13
15 16 8 4 15 12 15 19 0 12 20 26 28 19 2 -1 -6 -16 -19 -33z m394 -27 c20
-20 37 -42 37 -50 0 -7 11 -21 25 -30 14 -9 25 -25 25 -35 0 -25 -5 -24 -51
13 -27 22 -35 34 -27 39 15 10 -9 59 -29 59 -7 0 -13 5 -13 10 0 6 -7 10 -15
10 -8 0 -15 5 -15 10 0 20 27 9 63 -26z m-35 -32 c14 -46 9 -50 -21 -20 -14
14 -32 28 -42 31 -24 10 -12 22 23 23 26 1 31 -4 40 -34z m107 27 c4 -6 5 -13
2 -16 -8 -7 -47 7 -47 18 0 13 37 11 45 -2z m-153 -58 c8 -1 38 -67 38 -82 0
-18 -27 -8 -55 21 -16 17 -34 30 -41 30 -16 0 -27 17 -20 29 5 7 38 8 78 2z
m-52 -82 c15 -17 33 -51 39 -75 6 -23 20 -58 30 -76 23 -40 31 -90 14 -95 -6
-2 -13 4 -16 14 -2 10 -2 3 0 -14 2 -19 -1 -33 -7 -33 -5 0 -10 4 -10 8 0 5
-6 17 -14 28 -14 18 -15 18 -12 -6 2 -14 7 -33 11 -43 5 -12 2 -24 -7 -34 -14
-13 -16 -11 -21 16 -7 35 -37 43 -37 11 0 -11 -4 -20 -10 -20 -5 0 -10 6 -10
14 0 7 -12 21 -26 30 -29 20 -27 42 4 38 12 -2 22 2 22 7 0 6 6 11 14 11 7 0
19 14 26 30 7 17 22 37 33 45 19 13 19 15 3 21 -11 4 -22 1 -27 -7 -7 -12 -9
-12 -9 0 0 27 -31 51 -51 41 -21 -12 -37 6 -21 22 6 6 8 24 5 39 -3 18 -1 29
6 29 6 0 11 7 11 15 0 25 29 17 60 -16z m138 -67 c37 -56 42 -83 12 -75 -14 4
-20 14 -20 33 0 15 -9 35 -20 45 -20 18 -27 45 -12 45 4 0 22 -22 40 -48z
m-22 -49 c-2 -2 0 -18 4 -34 11 -37 -1 -37 -23 0 -22 38 -22 50 3 44 12 -3 19
-8 16 -10z m-156 3 c0 -3 -4 -8 -10 -11 -5 -3 -10 -1 -10 4 0 6 5 11 10 11 6
0 10 -2 10 -4z m-10 -46 c0 -5 -4 -10 -10 -10 -5 0 -10 5 -10 10 0 6 5 10 10
10 6 0 10 -4 10 -10z m234 -326 c23 -9 20 -23 -4 -17 -11 3 -20 9 -20 14 0 11
3 11 24 3z"/>
<path d="M275 590 c3 -5 11 -10 16 -10 6 0 7 5 4 10 -3 6 -11 10 -16 10 -6 0
-7 -4 -4 -10z"/>
<path d="M291 354 c0 -11 3 -14 6 -6 3 7 2 16 -1 19 -3 4 -6 -2 -5 -13z"/>
<path d="M650 1615 c0 -6 7 -12 15 -12 8 0 15 6 15 12 0 6 -7 12 -15 12 -8 0
-15 -6 -15 -12z"/>
<path d="M883 1577 c-45 -33 -60 -65 -47 -94 4 -10 7 -21 6 -25 -1 -4 9 -19
22 -33 24 -25 76 -35 76 -14 0 7 8 19 18 28 9 9 23 33 30 53 12 35 11 42 -9
78 -13 22 -30 40 -38 39 -9 0 -35 -15 -58 -32z"/>
<path d="M518 1566 c-21 -5 -38 -15 -38 -22 0 -7 -5 -14 -11 -16 -11 -4 48
-107 61 -108 3 0 4 17 2 38 -3 27 1 44 13 55 9 9 15 27 13 39 -3 21 -6 22 -40
14z m-8 -66 c0 -5 -2 -10 -4 -10 -3 0 -8 5 -11 10 -3 6 -1 10 4 10 6 0 11 -4
11 -10z"/>
<path d="M680 1573 c0 -4 5 -15 10 -23 8 -13 10 -13 10 2 0 9 -4 20 -10 23 -5
3 -10 3 -10 -2z"/>
<path d="M730 1406 c0 -14 5 -28 10 -31 6 -3 10 0 10 7 0 9 3 9 10 -2 14 -21
13 5 0 31 -15 26 -30 24 -30 -5z"/>
<path d="M770 1343 c0 -13 5 -23 10 -23 13 0 13 11 0 30 -8 12 -10 11 -10 -7z"/>
<path d="M710 1340 c0 -6 7 -10 15 -10 8 0 15 2 15 4 0 2 -7 6 -15 10 -8 3
-15 1 -15 -4z"/>
<path d="M1180 1284 c0 -12 7 -27 15 -34 20 -17 21 9 0 36 -14 19 -14 19 -15
-2z"/>
<path d="M1240 1011 c0 -5 5 -13 10 -16 6 -3 10 -2 10 4 0 5 -4 13 -10 16 -5
3 -10 2 -10 -4z"/>
<path d="M1774 855 c-8 -33 2 -43 26 -27 28 17 32 15 20 -9 -16 -28 -6 -34 19
-12 28 23 29 57 1 48 -13 -4 -22 -1 -26 9 -9 25 -33 19 -40 -9z"/>
<path d="M1847 784 c-4 -4 -7 -14 -7 -23 0 -11 3 -12 11 -4 6 6 10 16 7 23 -2
6 -7 8 -11 4z"/>
<path d="M1780 756 c0 -9 5 -16 10 -16 6 0 10 4 10 9 0 6 -4 13 -10 16 -5 3
-10 -1 -10 -9z"/>
<path d="M1845 720 c10 -11 22 -17 26 -14 13 8 3 21 -22 27 -20 5 -20 5 -4
-13z"/>
<path d="M570 274 c0 -8 5 -12 10 -9 6 3 10 10 10 16 0 5 -4 9 -10 9 -5 0 -10
-7 -10 -16z"/>
<path d="M540 210 c0 -5 5 -10 10 -10 6 0 10 5 10 10 0 6 -4 10 -10 10 -5 0
-10 -4 -10 -10z"/>
</g>
</svg>
